<?xml version="1.0" encoding="utf-8"?>
<svg xmlns="http://www.w3.org/2000/svg" xmlns:svg="http://www.w3.org/2000/svg" version="1.1" viewBox="0 0 1400 640">
	<title>The titlepage for the Standard Ebooks edition of The Red Badge of Courage: An Episode of the American Civil War, by Stephen Crane</title>
	<g aria-label="THE RED">
		<path d="m 487.10087,68.245613 h 18.33919 V 130 H 523.0307 V 68.245613 h 18.33918 V 52.807016 h -54.26901 z"/>
		<path d="m 570.29532,99.029239 h 24.88889 V 130 h 17.59064 V 52.807016 H 595.18421 V 83.590642 H 570.29532 V 52.807016 H 552.70468 V 130 h 17.59064 z"/>
		<path d="M 673.14035,52.807016 H 628.97661 V 130 h 44.16374 v -15.4386 h -26.5731 V 99.029239 h 25.4503 V 83.590642 h -25.4503 V 68.245613 h 26.5731 z"/>
		<path d="M 718.83772,52.807016 V 130 h 17.59065 V 99.497075 L 760.00732,130 h 22.36257 l -26.5731,-31.906433 c 9.45029,-2.994152 15.81286,-10.760234 15.81286,-22.362574 0,-15.157895 -10.8538,-22.923977 -25.16959,-22.923977 z m 17.59065,34.245615 V 66.842104 h 2.05848 c 6.64327,0 14.59649,0.467836 14.59649,10.105263 0,9.637428 -7.95322,10.105264 -14.59649,10.105264 z"/>
		<path d="M 835.07018,52.807016 H 790.90643 V 130 h 44.16375 v -15.4386 h -26.5731 V 99.029239 h 25.45029 V 83.590642 H 808.49708 V 68.245613 h 26.5731 z"/>
		<path d="M 850.18277,52.807016 V 130 h 22.36257 c 21.23977,0 38.92398,-16.09357 38.92398,-38.643276 0,-22.45614 -17.77778,-38.549708 -38.92398,-38.549708 z M 867.77341,114.2807 V 68.526315 h 2.71345 c 13.09942,0 21.98831,10.011696 21.98831,22.923977 -0.0936,12.912278 -8.98246,22.830408 -21.98831,22.830408 z"/>
	</g>
	<g aria-label="BADGE OF COURAGE:">
		<path d="M 143.13596,152.80702 V 230 h 29.28655 c 16,0 25.26315,-8.79532 25.26315,-21.52047 0,-12.44444 -6.83041,-17.77778 -16.46783,-19.46199 6.54971,-3.36842 9.63742,-9.45029 9.63742,-16.5614 0,-14.69006 -10.47953,-19.64912 -23.76608,-19.64912 z m 17.59064,30.22222 v -16.65497 h 1.40351 c 7.67251,0 11.6959,2.33918 11.6959,7.85965 0,6.45614 -4.11695,8.79532 -11.6959,8.79532 z m 0,33.40351 v -18.24562 h 5.52047 c 8.32748,0 12.91228,2.52632 12.91228,9.63743 0,6.08187 -4.5848,8.60819 -12.91228,8.60819 z"/>
		<path d="M 247.8304,152.80702 H 231.5497 L 200.39181,230 h 18.90058 l 5.7076,-15.4386 h 29.38012 L 260.08771,230 h 18.90059 z m 0.56141,46.31579 H 230.9883 l 8.60819,-22.45614 h 0.18713 z"/>
		<path d="M 286.9079,152.80702 V 230 h 22.36257 c 21.23977,0 38.92398,-16.09357 38.92398,-38.64328 0,-22.45614 -17.77778,-38.5497 -38.92398,-38.5497 z m 17.59064,61.47368 v -45.75439 h 2.71345 c 13.09942,0 21.98831,10.0117 21.98831,22.92398 -0.0936,12.91228 -8.98246,22.83041 -21.98831,22.83041 z"/>
		<path d="m 430.78802,186.77193 h -35.64913 v 13.56725 h 17.77778 c 0,9.45029 -8.32748,14.87719 -16.74854,14.87719 -10.8538,0 -19.64912,-10.66666 -19.64912,-23.76608 0,-13.38012 8.79532,-24.14035 19.64912,-24.14035 6.83041,0 12.72515,2.71345 17.21638,9.91813 l 11.50877,-12.63158 c -6.73684,-8.14035 -16.18713,-13.19298 -29.75439,-13.19298 -21.7076,0 -37.61403,17.87134 -37.61403,40.04678 0,22.08187 16.8421,39.95322 37.61403,39.95322 15.1579,0 31.4386,-8.32749 35.64913,-27.88304 z"/>
		<path d="M 487.63597,152.80702 H 443.47223 V 230 h 44.16374 v -15.4386 h -26.5731 v -15.53216 h 25.4503 v -15.4386 h -25.4503 v -15.34503 h 26.5731 z"/>
		<path d="m 529.87136,191.35672 c 0,22.54971 16.09356,40.04679 38.92397,40.04679 22.17544,0 38.83041,-17.49708 38.83041,-40.04679 0,-22.5497 -17.40351,-39.95321 -38.83041,-39.95321 -21.23976,0 -38.92397,17.40351 -38.92397,39.95321 z m 18.99415,0 c 0,-11.50877 6.36257,-23.01754 19.92982,-23.01754 13.66082,0 19.83626,11.50877 19.83626,23.01754 0,11.50878 -5.80117,23.01755 -19.83626,23.01755 -14.40935,0 -19.92982,-11.50877 -19.92982,-23.01755 z"/>
		<path d="M 665.019,152.80702 H 620.38742 V 230 h 17.59064 v -30.97076 h 24.98246 v -15.4386 H 637.97806 V 168.24561 H 665.019 Z"/>
		<path d="m 747.12134,214.09357 c -17.68421,0 -25.45029,-12.35088 -25.45029,-22.73685 0,-10.29239 7.76608,-22.64327 25.45029,-22.64327 8.98246,0 15.1579,4.77193 15.1579,4.77193 l 7.48538,-14.97076 c 0,0 -8.60819,-7.11111 -25.35673,-7.11111 -21.89473,0 -41.82456,17.96491 -41.82456,40.14035 0,22.08187 20.02339,39.85965 41.82456,39.85965 16.74854,0 25.35673,-7.11111 25.35673,-7.11111 l -7.48538,-14.97076 c 0,0 -6.17544,4.77193 -15.1579,4.77193 z"/>
		<path d="m 778.12428,191.35672 c 0,22.54971 16.09357,40.04679 38.92398,40.04679 22.17544,0 38.83041,-17.49708 38.83041,-40.04679 0,-22.5497 -17.40351,-39.95321 -38.83041,-39.95321 -21.23976,0 -38.92398,17.40351 -38.92398,39.95321 z m 18.99416,0 c 0,-11.50877 6.36257,-23.01754 19.92982,-23.01754 13.66082,0 19.83626,11.50877 19.83626,23.01754 0,11.50878 -5.80117,23.01755 -19.83626,23.01755 -14.40935,0 -19.92982,-11.50877 -19.92982,-23.01755 z"/>
		<path d="m 927.96199,152.80702 h -17.59064 v 44.63158 c 0,12.91228 -3.92983,16.65497 -12.53802,16.65497 -8.60818,0 -12.53801,-3.74269 -12.53801,-16.65497 v -44.63158 h -17.59064 v 49.77777 c 0,19.08772 10.47953,28.81872 30.12865,28.81872 19.64913,0 30.12866,-9.731 30.12866,-28.81872 z"/>
		<path d="M 943.26755,152.80702 V 230 h 17.59064 V 199.49708 L 984.43714,230 h 22.36256 l -26.57309,-31.90643 c 9.4503,-2.99416 15.81287,-10.76024 15.81287,-22.36258 0,-15.15789 -10.8538,-22.92397 -25.16959,-22.92397 z m 17.59064,34.24561 V 166.8421 h 2.05848 c 6.64328,0 14.59649,0.46784 14.59649,10.10527 0,9.63742 -7.95321,10.10526 -14.59649,10.10526 z"/>
		<path d="m 1054.541,152.80702 h -16.2807 L 1007.1024,230 h 18.9005 l 5.7076,-15.4386 h 29.3802 L 1066.7983,230 h 18.9005 z m 0.5614,46.31579 h -17.4036 l 8.6082,-22.45614 h 0.1872 z"/>
		<path d="m 1163.4196,186.77193 h -35.6491 v 13.56725 h 17.7778 c 0,9.45029 -8.3275,14.87719 -16.7486,14.87719 -10.8538,0 -19.6491,-10.66666 -19.6491,-23.76608 0,-13.38012 8.7953,-24.14035 19.6491,-24.14035 6.8304,0 12.7252,2.71345 17.2164,9.91813 l 11.5088,-12.63158 c -6.7369,-8.14035 -16.1872,-13.19298 -29.7544,-13.19298 -21.7076,0 -37.614,17.87134 -37.614,40.04678 0,22.08187 16.8421,39.95322 37.614,39.95322 15.1579,0 31.4386,-8.32749 35.6491,-27.88304 z"/>
		<path d="m 1220.2676,152.80702 h -44.1637 V 230 h 44.1637 v -15.4386 h -26.5731 v -15.53216 h 25.4503 v -15.4386 h -25.4503 v -15.34503 h 26.5731 z"/>
		<path d="m 1246.0468,178.16374 c -5.8948,0 -10.6667,4.77193 -10.6667,10.76024 0,5.89473 4.7719,10.66666 10.6667,10.66666 5.9883,0 10.7602,-4.77193 10.7602,-10.66666 0,-5.98831 -4.7719,-10.76024 -10.7602,-10.76024 z m 0,31.81287 c -5.8948,0 -10.6667,4.77193 -10.6667,10.76023 0,5.89474 4.7719,10.66667 10.6667,10.66667 5.9883,0 10.7602,-4.77193 10.7602,-10.66667 0,-5.9883 -4.7719,-10.76023 -10.7602,-10.76023 z"/>
	</g>
	<g aria-label="AN EPISODE OF THE">
		<path d="m 229.30701,252.80702 h -16.2807 L 181.86841,330 H 200.769 l 5.7076,-15.4386 h 29.38012 L 241.56432,330 h 18.90059 z m 0.5614,46.31579 H 212.4649 l 8.60819,-22.45614 h 0.18714 z"/>
		<path d="m 285.97514,282.09357 h 0.18713 L 316.85233,330 h 17.59065 v -77.19298 h -17.59065 v 47.90643 H 316.6652 L 285.97514,252.80702 H 268.3845 V 330 h 17.59064 z"/>
		<path d="M 425.43568,252.80702 H 381.27193 V 330 h 44.16375 v -15.4386 h -26.5731 v -15.53216 h 25.45029 v -15.4386 h -25.45029 v -15.34503 h 26.5731 z"/>
		<path d="M 440.54824,252.80702 V 330 h 17.59064 v -28.63158 h 10.5731 c 15.06433,0 26.38597,-8.88889 26.38597,-24.79532 0,-16 -11.32164,-23.76608 -26.38597,-23.76608 z m 17.59064,34.52631 V 266.8421 h 4.95907 c 6.92397,0 13.47368,2.33919 13.47368,10.2924 0,7.85965 -6.54971,10.19883 -13.47368,10.19883 z"/>
		<path d="M 525.45613,252.80702 H 507.86548 V 330 h 17.59065 z"/>
		<path d="m 568.35671,251.40351 c -12.44444,0 -25.16959,9.16959 -25.16959,23.57895 0,8.04678 5.4269,15.25146 14.69006,19.83625 9.16959,4.5848 17.40351,7.11111 17.40351,12.72515 0,7.20468 -7.29825,7.57895 -11.1345,7.57895 -8.60819,0 -18.90059,-8.70176 -18.90059,-8.70176 l -8.79532,14.78363 c 0,0 10.94737,10.19883 29.00585,10.19883 15.06433,0 29.09941,-6.45614 29.09941,-24.88889 0,-10.10526 -9.45029,-17.40351 -18.05848,-21.05263 -8.79532,-3.74269 -16.09356,-6.83041 -16.09356,-11.13451 0,-4.21052 3.18128,-6.92397 9.16959,-6.92397 7.95321,0 15.62573,5.33333 15.62573,5.33333 l 7.11111,-14.03509 c 0,0 -9.91813,-7.29824 -23.95322,-7.29824 z"/>
		<path d="m 604.31579,291.35672 c 0,22.54971 16.09357,40.04679 38.92398,40.04679 22.17543,0 38.83041,-17.49708 38.83041,-40.04679 0,-22.5497 -17.40351,-39.95321 -38.83041,-39.95321 -21.23977,0 -38.92398,17.40351 -38.92398,39.95321 z m 18.99415,0 c 0,-11.50877 6.36257,-23.01754 19.92983,-23.01754 13.66081,0 19.83625,11.50877 19.83625,23.01754 0,11.50878 -5.80117,23.01755 -19.83625,23.01755 -14.40936,0 -19.92983,-11.50877 -19.92983,-23.01755 z"/>
		<path d="M 694.83188,252.80702 V 330 h 22.36258 c 21.23976,0 38.92397,-16.09357 38.92397,-38.64328 0,-22.45614 -17.77777,-38.5497 -38.92397,-38.5497 z m 17.59065,61.47368 v -45.75439 h 2.71345 c 13.09941,0 21.9883,10.0117 21.9883,22.92398 -0.0936,12.91228 -8.98245,22.83041 -21.9883,22.83041 z"/>
		<path d="M 813.07455,252.80702 H 768.9108 V 330 h 44.16375 v -15.4386 h -26.5731 v -15.53216 h 25.45029 v -15.4386 h -25.45029 v -15.34503 h 26.5731 z"/>
		<path d="m 855.30996,291.35672 c 0,22.54971 16.09357,40.04679 38.92398,40.04679 22.17544,0 38.83041,-17.49708 38.83041,-40.04679 0,-22.5497 -17.40351,-39.95321 -38.83041,-39.95321 -21.23977,0 -38.92398,17.40351 -38.92398,39.95321 z m 18.99415,0 c 0,-11.50877 6.36257,-23.01754 19.92983,-23.01754 13.66082,0 19.83625,11.50877 19.83625,23.01754 0,11.50878 -5.80117,23.01755 -19.83625,23.01755 -14.40936,0 -19.92983,-11.50877 -19.92983,-23.01755 z"/>
		<path d="M 990.4576,252.80702 H 945.82602 V 330 h 17.59065 v -30.97076 h 24.98245 v -15.4386 h -24.98245 v -15.34503 h 27.04093 z"/>
		<path d="m 1024.9737,268.24561 h 18.3392 V 330 h 17.5906 v -61.75439 h 18.3392 v -15.43859 h -54.269 z"/>
		<path d="m 1108.1681,299.02924 h 24.8889 V 330 h 17.5907 v -77.19298 h -17.5907 v 30.78362 h -24.8889 v -30.78362 h -17.5906 V 330 h 17.5906 z"/>
		<path d="m 1211.0131,252.80702 h -44.1637 V 330 h 44.1637 V 314.5614 H 1184.44 v -15.53216 h 25.4503 v -15.4386 H 1184.44 v -15.34503 h 26.5731 z"/>
	</g>
	<g aria-label="AMERICAN CIVIL WAR">
		<path d="m 175.63742,352.80702 h -16.2807 L 128.19882,430 h 18.90059 l 5.7076,-15.4386 h 29.38012 L 187.89473,430 h 18.90058 z m 0.5614,46.31579 h -17.40351 l 8.60819,-22.45614 h 0.18713 z"/>
		<path d="m 278.52777,430 h 17.59065 l -6.92398,-77.19298 h -18.71345 l -17.12281,44.53801 -17.12281,-44.53801 H 217.52192 L 210.59795,430 h 17.59064 l 3.64912,-45.75439 h 0.46784 l 15.81286,45.28655 h 10.47954 l 15.81286,-45.28655 h 0.46784 z"/>
		<path d="M 352.32894,352.80702 H 308.16519 V 430 h 44.16375 v -15.4386 h -26.5731 v -15.53216 h 25.45029 v -15.4386 h -25.45029 v -15.34503 h 26.5731 z"/>
		<path d="M 367.44151,352.80702 V 430 h 17.59065 V 399.49708 L 408.6111,430 h 22.36258 l -26.5731,-31.90643 c 9.45029,-2.99416 15.81286,-10.76024 15.81286,-22.36258 0,-15.15789 -10.8538,-22.92397 -25.16959,-22.92397 z m 17.59065,34.24561 V 366.8421 h 2.05848 c 6.64327,0 14.59649,0.46784 14.59649,10.10527 0,9.63742 -7.95322,10.10526 -14.59649,10.10526 z"/>
		<path d="M 457.10087,352.80702 H 439.51022 V 430 h 17.59065 z"/>
		<path d="m 511.53656,414.09357 c -17.68421,0 -25.45029,-12.35088 -25.45029,-22.73685 0,-10.29239 7.76608,-22.64327 25.45029,-22.64327 8.98246,0 15.1579,4.77193 15.1579,4.77193 l 7.48538,-14.97076 c 0,0 -8.60819,-7.11111 -25.35673,-7.11111 -21.89473,0 -41.82456,17.96491 -41.82456,40.14035 0,22.08187 20.02339,39.85965 41.82456,39.85965 16.74854,0 25.35673,-7.11111 25.35673,-7.11111 l -7.48538,-14.97076 c 0,0 -6.17544,4.77193 -15.1579,4.77193 z"/>
		<path d="m 585.20614,352.80702 h -16.2807 L 537.76755,430 h 18.90058 l 5.7076,-15.4386 h 29.38012 L 597.46345,430 h 18.90059 z m 0.56141,46.31579 h -17.40351 l 8.60819,-22.45614 h 0.18713 z"/>
		<path d="m 641.87427,382.09357 h 0.18714 L 672.75147,430 h 17.59064 v -77.19298 h -17.59064 v 47.90643 h -0.18714 L 641.87427,352.80702 H 624.28363 V 430 h 17.59064 z"/>
		<path d="m 775.32309,414.09357 c -17.68421,0 -25.45029,-12.35088 -25.45029,-22.73685 0,-10.29239 7.76608,-22.64327 25.45029,-22.64327 8.98246,0 15.1579,4.77193 15.1579,4.77193 l 7.48538,-14.97076 c 0,0 -8.60819,-7.11111 -25.35673,-7.11111 -21.89473,0 -41.82456,17.96491 -41.82456,40.14035 0,22.08187 20.02339,39.85965 41.82456,39.85965 16.74854,0 25.35673,-7.11111 25.35673,-7.11111 l -7.48538,-14.97076 c 0,0 -6.17544,4.77193 -15.1579,4.77193 z"/>
		<path d="M 827.37867,352.80702 H 809.78802 V 430 h 17.59065 z"/>
		<path d="m 859.76169,430 h 13.84795 l 32.37427,-77.19298 h -19.83626 l -19.46198,50.71345 -19.46199,-50.71345 h -19.83626 z"/>
		<path d="M 931.49415,352.80702 H 913.9035 V 430 h 17.59065 z"/>
		<path d="M 965.36841,352.80702 H 947.77777 V 430 h 44.16374 v -15.4386 h -26.5731 z"/>
		<path d="m 1087.3641,430 h 19.4619 l 21.9884,-77.19298 h -19.462 l -13.193,52.95906 h -0.4679 l -14.035,-52.95906 h -13.2866 l -14.0351,52.95906 h -0.4678 l -13.193,-52.95906 h -19.5556 L 1043.1067,430 h 19.5556 l 12.3509,-43.32164 z"/>
		<path d="m 1168.6491,352.80702 h -16.2807 L 1121.2105,430 h 18.9006 l 5.7076,-15.4386 h 29.3801 L 1180.9064,430 h 18.9006 z m 0.5614,46.31579 h -17.4035 l 8.6082,-22.45614 h 0.1872 z"/>
		<path d="M 1207.7267,352.80702 V 430 h 17.5906 V 399.49708 L 1248.8963,430 h 22.3625 l -26.5731,-31.90643 c 9.4503,-2.99416 15.8129,-10.76024 15.8129,-22.36258 0,-15.15789 -10.8538,-22.92397 -25.1696,-22.92397 z m 17.5906,34.24561 V 366.8421 h 2.0585 c 6.6433,0 14.5965,0.46784 14.5965,10.10527 0,9.63742 -7.9532,10.10526 -14.5965,10.10526 z"/>
	</g>
	<g aria-label="STEPHEN CRANE">
		<path d="m 396.0647,531.05263 c -9.33334,0 -18.8772,6.8772 -18.8772,17.68421 0,6.03509 4.07018,11.4386 11.01755,14.8772 6.87719,3.43859 13.05263,5.33333 13.05263,9.54385 0,5.40351 -5.47369,5.68422 -8.35088,5.68422 -6.45614,0 -14.17544,-6.52632 -14.17544,-6.52632 l -6.59649,11.08772 c 0,0 8.21053,7.64912 21.75439,7.64912 11.29824,0 21.82456,-4.8421 21.82456,-18.66666 0,-7.57895 -7.08772,-13.05264 -13.54386,-15.78948 -6.59649,-2.80702 -12.07018,-5.12281 -12.07018,-8.35088 0,-3.15789 2.38597,-5.19298 6.8772,-5.19298 5.96491,0 11.71929,4 11.71929,4 l 5.33334,-10.52631 c 0,0 -7.4386,-5.47369 -17.96491,-5.47369 z"/>
		<path d="m 419.80483,543.68421 h 13.75438 V 590 h 13.19299 v -46.31579 h 13.75438 v -11.57895 h -40.70175 z"/>
		<path d="m 503.38048,532.10526 h -33.1228 V 590 h 33.1228 v -11.57895 h -19.92982 v -11.64912 h 19.08772 v -11.57895 h -19.08772 v -11.50877 h 19.92982 z"/>
		<path d="M 515.96491,532.10526 V 590 h 13.19299 v -21.47368 h 7.92982 c 11.29825,0 19.78947,-6.66667 19.78947,-18.5965 0,-11.99999 -8.49122,-17.82456 -19.78947,-17.82456 z M 529.1579,558 v -15.36842 h 3.71929 c 5.19299,0 10.10527,1.75439 10.10527,7.7193 0,5.89473 -4.91228,7.64912 -10.10527,7.64912 z"/>
		<path d="m 580.89584,566.77193 h 18.66667 V 590 h 13.19298 v -57.89474 h -13.19298 v 23.08772 H 580.89584 V 532.10526 H 567.70286 V 590 h 13.19298 z"/>
		<path d="M 659.2796,532.10526 H 626.15679 V 590 h 33.12281 v -11.57895 h -19.92982 v -11.64912 h 19.08771 v -11.57895 h -19.08771 v -11.50877 h 19.92982 z"/>
		<path d="m 685.057,554.07018 h 0.14036 L 708.2149,590 h 13.19298 V 532.10526 H 708.2149 v 35.92983 h -0.14035 L 685.057,532.10526 H 671.86402 V 590 H 685.057 Z"/>
		<path d="m 787.64363,578.07018 c -13.26315,0 -19.08771,-9.26316 -19.08771,-17.05264 0,-7.71929 5.82456,-16.98245 19.08771,-16.98245 6.73685,0 11.36843,3.57895 11.36843,3.57895 l 5.61403,-11.22807 c 0,0 -6.45614,-5.33334 -19.01754,-5.33334 -16.42106,0 -31.36842,13.47369 -31.36842,30.10527 0,16.5614 15.01754,29.89473 31.36842,29.89473 12.5614,0 19.01754,-5.33333 19.01754,-5.33333 l -5.61403,-11.22807 c 0,0 -4.63158,3.57895 -11.36843,3.57895 z"/>
		<path d="M 814.74232,532.10526 V 590 H 827.9353 V 567.12281 L 845.61951,590 h 16.77193 l -19.92982,-23.92982 c 7.08772,-2.24562 11.85965,-8.07018 11.85965,-16.77193 0,-11.36842 -8.14036,-17.19299 -18.8772,-17.19299 z m 13.19298,25.68421 v -15.15789 h 1.54386 c 4.98246,0 10.94737,0.35088 10.94737,7.57895 0,7.22807 -5.96491,7.57894 -10.94737,7.57894 z"/>
		<path d="M 899.44737,532.10526 H 887.23684 L 863.86842,590 h 14.17544 l 4.2807,-11.57895 h 22.03509 L 908.64035,590 h 14.17544 z m 0.42105,34.73685 H 886.81579 L 893.27193,550 h 0.14035 z"/>
		<path d="m 943.19845,554.07018 h 0.14035 L 966.35635,590 h 13.19298 v -57.89474 h -13.19298 v 35.92983 H 966.216 L 943.19845,532.10526 H 930.00547 V 590 h 13.19298 z"/>
		<path d="M 1026.1053,532.10526 H 992.98246 V 590 h 33.12284 v -11.57895 h -19.9299 v -11.64912 h 19.0878 v -11.57895 h -19.0878 v -11.50877 h 19.9299 z"/>
	</g>
</svg>
